<svg width="802" height="625" viewBox="0 0 802 625" fill="none" xmlns="http://www.w3.org/2000/svg">
<g filter="url(#filter0_b_4_23)">
<path d="M359.333 445C359.333 544.411 278.894 625 179.667 625C80.4395 625 0 544.411 0 445C0 345.589 80.4395 265 179.667 265C278.894 265 359.333 345.589 359.333 445Z" fill="url(#paint0_linear_4_23)" fill-opacity="0.64"/>
<path d="M539 265C515.406 265 492.043 269.656 470.245 278.702C448.446 287.748 428.64 301.006 411.956 317.721C395.273 334.435 382.039 354.278 373.01 376.117C363.981 397.956 359.333 421.362 359.333 445C359.333 468.638 363.981 492.044 373.01 513.883C382.039 535.722 395.273 555.565 411.956 572.279C428.64 588.994 448.446 602.252 470.245 611.298C492.043 620.344 515.406 625 539 625V265Z" fill="url(#paint1_linear_4_23)" fill-opacity="0.64"/>
<path d="M538.5 265.501V624.499C515.142 624.434 492.02 619.793 470.436 610.837C448.699 601.816 428.948 588.594 412.31 571.926C395.673 555.258 382.476 535.47 373.472 513.692C364.468 491.914 359.833 468.572 359.833 445C359.833 421.428 364.468 398.086 373.472 376.308C382.476 354.53 395.673 334.742 412.31 318.074C428.948 301.406 448.699 288.184 470.436 279.163C492.02 270.207 515.142 265.566 538.5 265.501ZM358.833 445C358.833 544.136 278.617 624.5 179.667 624.5C80.7165 624.5 0.5 544.136 0.5 445C0.5 345.864 80.7165 265.5 179.667 265.5C278.617 265.5 358.833 345.864 358.833 445Z" stroke="white" stroke-opacity="0.8"/>
</g>
<g filter="url(#filter1_b_4_23)">
<rect x="657" width="340" height="530" rx="44" transform="rotate(90 657 0)" fill="white" fill-opacity="0.24"/>
<rect x="656.5" y="0.5" width="339" height="529" rx="43.5" transform="rotate(90 656.5 0.5)" stroke="url(#paint2_linear_4_23)"/>
</g>
<g filter="url(#filter2_b_4_23)">
<rect x="802" y="130" width="340" height="530" rx="44" transform="rotate(90 802 130)" fill="white" fill-opacity="0.4"/>
<rect x="801.5" y="130.5" width="339" height="529" rx="43.5" transform="rotate(90 801.5 130.5)" stroke="url(#paint3_linear_4_23)"/>
</g>
<g filter="url(#filter3_b_4_23)">
<rect x="312" y="340" width="191" height="90" rx="44" fill="white" fill-opacity="0.24"/>
<circle cx="357" cy="385" r="25" fill="white"/>
<path d="M360.505 378.667L353.905 378.667L353.905 390.921L360.505 390.921L360.505 378.667Z" fill="#FF5F00"/>
<path d="M354.323 384.795C354.322 383.615 354.581 382.45 355.08 381.388C355.579 380.326 356.306 379.395 357.204 378.667C356.092 377.763 354.755 377.201 353.348 377.045C351.941 376.889 350.519 377.146 349.246 377.785C347.973 378.424 346.9 379.42 346.149 380.66C345.398 381.899 345 383.332 345 384.794C345 386.256 345.398 387.689 346.149 388.929C346.9 390.168 347.973 391.164 349.246 391.804C350.519 392.443 351.941 392.699 353.348 392.543C354.755 392.387 356.092 391.825 357.204 390.922C356.306 390.193 355.58 389.263 355.08 388.201C354.581 387.14 354.322 385.975 354.323 384.795Z" fill="#EB001B"/>
<path d="M369.413 384.795C369.413 386.258 369.015 387.69 368.264 388.93C367.513 390.17 366.44 391.166 365.166 391.805C363.893 392.444 362.472 392.7 361.064 392.544C359.657 392.388 358.321 391.825 357.208 390.922C358.106 390.192 358.832 389.262 359.331 388.201C359.831 387.139 360.09 385.974 360.09 384.794C360.09 383.614 359.831 382.449 359.331 381.388C358.832 380.326 358.106 379.396 357.208 378.667C358.321 377.763 359.657 377.201 361.064 377.045C362.472 376.888 363.893 377.144 365.166 377.784C366.44 378.423 367.513 379.419 368.264 380.658C369.015 381.898 369.413 383.331 369.413 384.793L369.413 384.795Z" fill="#F79E1B"/>
<path opacity="0.8" d="M409.65 390.5L412.41 381.695L412.41 390.5L414.27 390.5L414.27 379.625L411.315 379.625L408.69 388.295L406.05 379.625L403.095 379.625L403.095 390.5L404.955 390.5L404.955 381.695L407.715 390.5L409.65 390.5ZM421.359 387.32C421.359 388.7 420.579 389.36 419.259 389.36C418.359 389.36 417.774 388.94 417.774 388.235C417.774 387.32 418.809 386.945 421.359 386.705L421.359 387.32ZM418.869 390.695C420.069 390.695 420.999 390.29 421.524 389.405C421.569 389.96 421.614 390.155 421.674 390.5L423.309 390.5C423.144 389.825 423.069 388.76 423.069 387.74C423.069 387.005 423.099 386.045 423.099 385.655C423.144 383.075 421.629 382.19 419.694 382.19C417.744 382.19 416.379 383.33 416.259 384.965L418.014 384.965C418.059 383.99 418.734 383.51 419.634 383.51C420.534 383.51 421.314 383.93 421.314 385.31L421.314 385.46C418.374 385.775 415.884 386.255 415.884 388.28C415.884 389.75 417.114 390.695 418.869 390.695ZM431.189 384.635C430.859 383.015 429.419 382.25 427.844 382.25C426.104 382.25 424.559 383.165 424.559 384.59C424.559 386.075 425.624 386.66 426.989 386.945L428.204 387.185C428.999 387.35 429.599 387.635 429.599 388.295C429.599 388.955 428.924 389.345 427.979 389.345C426.914 389.345 426.329 388.88 426.164 388.04L424.424 388.04C424.619 389.555 425.939 390.695 427.919 390.695C429.749 390.695 431.339 389.765 431.339 388.085C431.339 386.51 430.094 386 428.459 385.685L427.319 385.46C426.614 385.325 426.239 385.04 426.239 384.5C426.239 383.96 426.959 383.615 427.739 383.615C428.639 383.615 429.314 383.9 429.509 384.635L431.189 384.635ZM433.157 382.43L431.957 382.43L431.957 383.72L433.157 383.72L433.157 388.385C433.157 390.035 433.502 390.5 435.227 390.5L436.547 390.5L436.547 389.135L435.902 389.135C435.137 389.135 434.942 388.94 434.942 388.115L434.942 383.72L436.562 383.72L436.562 382.43L434.942 382.43L434.942 380.3L433.157 380.3L433.157 382.43ZM445.29 386.975C445.455 384.275 443.895 382.25 441.42 382.25C439.125 382.25 437.46 383.975 437.46 386.405C437.46 388.73 438.945 390.695 441.54 390.695C443.61 390.695 444.84 389.375 445.2 388.085L443.445 388.085C443.13 388.85 442.41 389.21 441.465 389.21C440.445 389.21 439.395 388.475 439.275 386.975L445.29 386.975ZM441.42 383.645C442.47 383.645 443.43 384.41 443.475 385.67L439.275 385.67C439.44 384.155 440.58 383.645 441.42 383.645ZM451.17 382.445C451.035 382.43 450.84 382.415 450.705 382.415C449.73 382.43 448.95 382.97 448.515 383.87L448.515 382.43L446.76 382.43L446.76 390.5L448.545 390.5L448.545 386.27C448.545 384.65 449.19 384.2 450.315 384.2C450.585 384.2 450.87 384.215 451.17 384.245L451.17 382.445ZM455.526 382.25C453.111 382.25 451.566 384.08 451.566 386.48C451.566 388.88 453.111 390.695 455.451 390.695C457.176 390.695 458.841 389.63 459.201 387.74L457.461 387.74C457.221 388.82 456.366 389.21 455.481 389.21C454.431 389.21 453.411 388.385 453.411 386.465C453.411 384.56 454.401 383.735 455.526 383.735C456.501 383.735 457.236 384.335 457.401 385.19L459.141 385.19C458.826 383.405 457.296 382.25 455.526 382.25ZM465.51 387.32C465.51 388.7 464.73 389.36 463.41 389.36C462.51 389.36 461.925 388.94 461.925 388.235C461.925 387.32 462.96 386.945 465.51 386.705L465.51 387.32ZM463.02 390.695C464.22 390.695 465.15 390.29 465.675 389.405C465.72 389.96 465.765 390.155 465.825 390.5L467.46 390.5C467.295 389.825 467.22 388.76 467.22 387.74C467.22 387.005 467.25 386.045 467.25 385.655C467.295 383.075 465.78 382.19 463.845 382.19C461.895 382.19 460.53 383.33 460.41 384.965L462.165 384.965C462.21 383.99 462.885 383.51 463.785 383.51C464.685 383.51 465.465 383.93 465.465 385.31L465.465 385.46C462.525 385.775 460.035 386.255 460.035 388.28C460.035 389.75 461.265 390.695 463.02 390.695ZM473.465 382.445C473.33 382.43 473.135 382.415 473 382.415C472.025 382.43 471.245 382.97 470.81 383.87L470.81 382.43L469.055 382.43L469.055 390.5L470.84 390.5L470.84 386.27C470.84 384.65 471.485 384.2 472.61 384.2C472.88 384.2 473.165 384.215 473.465 384.245L473.465 382.445ZM479.771 383.51C479.291 382.715 478.451 382.25 477.371 382.25C475.451 382.25 473.861 383.885 473.861 386.465C473.861 389.06 475.451 390.695 477.371 390.695C478.451 390.695 479.291 390.23 479.771 389.435L479.771 390.5L481.556 390.5L481.556 379.625L479.771 379.625L479.771 383.51ZM479.846 386.465C479.846 388.325 478.916 389.24 477.761 389.24C476.561 389.24 475.721 388.19 475.721 386.465C475.721 384.785 476.561 383.705 477.761 383.705C478.916 383.705 479.846 384.605 479.846 386.465Z" fill="black"/>
<rect x="312.5" y="340.5" width="190" height="89" rx="43.5" stroke="url(#paint4_linear_4_23)"/>
</g>
<g filter="url(#filter4_b_4_23)">
<rect x="157" y="220" width="176" height="90" rx="44" fill="white" fill-opacity="0.24"/>
<circle cx="202" cy="265" r="25" fill="white"/>
<path d="M204.806 258.707C204.177 259.417 203.171 259.976 202.164 259.896C202.038 258.937 202.531 257.918 203.108 257.289C203.737 256.559 204.837 256.04 205.728 256C205.833 256.999 205.424 257.978 204.806 258.707ZM205.718 260.086C204.261 260.006 203.013 260.875 202.321 260.875C201.619 260.875 200.56 260.126 199.407 260.146C197.908 260.166 196.514 260.975 195.749 262.264C194.176 264.842 195.34 268.658 196.86 270.756C197.604 271.795 198.495 272.934 199.669 272.894C200.78 272.854 201.221 272.205 202.563 272.205C203.915 272.205 204.303 272.894 205.477 272.874C206.693 272.854 207.458 271.835 208.202 270.796C209.052 269.617 209.397 268.468 209.418 268.408C209.397 268.388 207.07 267.539 207.049 264.981C207.028 262.843 208.884 261.824 208.968 261.765C207.919 260.286 206.284 260.126 205.718 260.086Z" fill="#243845"/>
<path opacity="0.8" d="M247 270.5L248.95 270.5L249.79 268.085L254.2 268.085L255.055 270.5L257.14 270.5L253.06 259.625L251.05 259.625L247 270.5ZM251.98 261.83L253.63 266.495L250.345 266.495L251.98 261.83ZM259.852 266.465C259.852 264.605 260.767 263.705 261.937 263.705C263.197 263.705 263.932 264.77 263.932 266.465C263.932 268.19 263.197 269.24 261.937 269.24C260.767 269.24 259.852 268.325 259.852 266.465ZM258.142 262.43L258.142 273.125L259.927 273.125L259.927 269.435C260.407 270.23 261.247 270.695 262.327 270.695C264.307 270.695 265.792 269.06 265.792 266.465C265.792 263.885 264.307 262.25 262.327 262.25C261.247 262.25 260.407 262.715 259.927 263.51L259.927 262.43L258.142 262.43ZM268.963 266.465C268.963 264.605 269.878 263.705 271.048 263.705C272.308 263.705 273.043 264.77 273.043 266.465C273.043 268.19 272.308 269.24 271.048 269.24C269.878 269.24 268.963 268.325 268.963 266.465ZM267.253 262.43L267.253 273.125L269.038 273.125L269.038 269.435C269.518 270.23 270.358 270.695 271.438 270.695C273.418 270.695 274.903 269.06 274.903 266.465C274.903 263.885 273.418 262.25 271.438 262.25C270.358 262.25 269.518 262.715 269.038 263.51L269.038 262.43L267.253 262.43ZM278.149 259.625L276.364 259.625L276.364 270.5L278.149 270.5L278.149 259.625ZM287.448 266.975C287.613 264.275 286.053 262.25 283.578 262.25C281.283 262.25 279.618 263.975 279.618 266.405C279.618 268.73 281.103 270.695 283.698 270.695C285.768 270.695 286.998 269.375 287.358 268.085L285.603 268.085C285.288 268.85 284.568 269.21 283.623 269.21C282.603 269.21 281.553 268.475 281.433 266.975L287.448 266.975ZM283.578 263.645C284.628 263.645 285.588 264.41 285.633 265.67L281.433 265.67C281.598 264.155 282.738 263.645 283.578 263.645ZM289.008 259.625L289.008 270.5L290.913 270.5L290.913 266.39L292.623 266.39C295.188 266.39 297.213 265.79 297.213 263.045C297.213 260 294.978 259.625 292.593 259.625L289.008 259.625ZM292.593 261.155C293.928 261.155 295.233 261.305 295.233 263.06C295.233 264.62 294.123 264.83 292.683 264.83L290.913 264.83L290.913 261.155L292.593 261.155ZM303.112 267.32C303.112 268.7 302.332 269.36 301.012 269.36C300.112 269.36 299.527 268.94 299.527 268.235C299.527 267.32 300.562 266.945 303.112 266.705L303.112 267.32ZM300.622 270.695C301.822 270.695 302.752 270.29 303.277 269.405C303.322 269.96 303.367 270.155 303.427 270.5L305.062 270.5C304.897 269.825 304.822 268.76 304.822 267.74C304.822 267.005 304.852 266.045 304.852 265.655C304.897 263.075 303.382 262.19 301.447 262.19C299.497 262.19 298.132 263.33 298.012 264.965L299.767 264.965C299.812 263.99 300.487 263.51 301.387 263.51C302.287 263.51 303.067 263.93 303.067 265.31L303.067 265.46C300.127 265.775 297.637 266.255 297.637 268.28C297.637 269.75 298.867 270.695 300.622 270.695ZM307.006 273.125C308.821 273.125 309.346 272.57 310.111 270.485L312.946 262.43L311.116 262.43L309.286 268.22L307.456 262.43L305.506 262.43L308.431 270.455L308.341 270.65C307.981 271.7 307.651 271.76 306.871 271.76L306.196 271.76L306.196 273.125L307.006 273.125Z" fill="black"/>
<rect x="157.5" y="220.5" width="175" height="89" rx="43.5" stroke="url(#paint5_linear_4_23)"/>
</g>
<g filter="url(#filter5_b_4_23)">
<path d="M594 130C594 164.794 565.794 193 531 193C496.206 193 468 164.794 468 130C468 95.2061 496.206 67 531 67C565.794 67 594 95.2061 594 130Z" fill="white" fill-opacity="0.4"/>
<path d="M657 67C648.727 67 640.534 68.6295 632.891 71.7956C625.247 74.9616 618.302 79.6022 612.452 85.4523C606.602 91.3024 601.962 98.2474 598.796 105.891C595.63 113.534 594 121.727 594 130C594 138.273 595.63 146.466 598.796 154.109C601.962 161.753 606.602 168.698 612.452 174.548C618.302 180.398 625.247 185.038 632.891 188.204C640.534 191.37 648.727 193 657 193V67Z" fill="white" fill-opacity="0.4"/>
<path d="M656.5 67.502V192.498C648.462 192.434 640.511 190.82 633.082 187.742C625.499 184.602 618.609 179.998 612.806 174.194C607.002 168.391 602.398 161.501 599.258 153.918C596.117 146.335 594.5 138.208 594.5 130C594.5 121.792 596.117 113.665 599.258 106.082C602.398 98.4994 607.002 91.6095 612.806 85.8058C618.609 80.0022 625.499 75.3984 633.082 72.2575C640.511 69.1804 648.462 67.5663 656.5 67.502ZM593.5 130C593.5 164.518 565.518 192.5 531 192.5C496.482 192.5 468.5 164.518 468.5 130C468.5 95.4822 496.482 67.5 531 67.5C565.518 67.5 593.5 95.4822 593.5 130Z" stroke="url(#paint6_linear_4_23)"/>
</g>
<defs>
<filter id="filter0_b_4_23" x="-40" y="225" width="619" height="440" filterUnits="userSpaceOnUse" color-interpolation-filters="sRGB">
<feFlood flood-opacity="0" result="BackgroundImageFix"/>
<feGaussianBlur in="BackgroundImage" stdDeviation="20"/>
<feComposite in2="SourceAlpha" operator="in" result="effect1_backgroundBlur_4_23"/>
<feBlend mode="normal" in="SourceGraphic" in2="effect1_backgroundBlur_4_23" result="shape"/>
</filter>
<filter id="filter1_b_4_23" x="87" y="-40" width="610" height="420" filterUnits="userSpaceOnUse" color-interpolation-filters="sRGB">
<feFlood flood-opacity="0" result="BackgroundImageFix"/>
<feGaussianBlur in="BackgroundImage" stdDeviation="20"/>
<feComposite in2="SourceAlpha" operator="in" result="effect1_backgroundBlur_4_23"/>
<feBlend mode="normal" in="SourceGraphic" in2="effect1_backgroundBlur_4_23" result="shape"/>
</filter>
<filter id="filter2_b_4_23" x="232" y="90" width="610" height="420" filterUnits="userSpaceOnUse" color-interpolation-filters="sRGB">
<feFlood flood-opacity="0" result="BackgroundImageFix"/>
<feGaussianBlur in="BackgroundImage" stdDeviation="20"/>
<feComposite in2="SourceAlpha" operator="in" result="effect1_backgroundBlur_4_23"/>
<feBlend mode="normal" in="SourceGraphic" in2="effect1_backgroundBlur_4_23" result="shape"/>
</filter>
<filter id="filter3_b_4_23" x="272" y="300" width="271" height="170" filterUnits="userSpaceOnUse" color-interpolation-filters="sRGB">
<feFlood flood-opacity="0" result="BackgroundImageFix"/>
<feGaussianBlur in="BackgroundImage" stdDeviation="20"/>
<feComposite in2="SourceAlpha" operator="in" result="effect1_backgroundBlur_4_23"/>
<feBlend mode="normal" in="SourceGraphic" in2="effect1_backgroundBlur_4_23" result="shape"/>
</filter>
<filter id="filter4_b_4_23" x="117" y="180" width="256" height="170" filterUnits="userSpaceOnUse" color-interpolation-filters="sRGB">
<feFlood flood-opacity="0" result="BackgroundImageFix"/>
<feGaussianBlur in="BackgroundImage" stdDeviation="20"/>
<feComposite in2="SourceAlpha" operator="in" result="effect1_backgroundBlur_4_23"/>
<feBlend mode="normal" in="SourceGraphic" in2="effect1_backgroundBlur_4_23" result="shape"/>
</filter>
<filter id="filter5_b_4_23" x="428" y="27" width="269" height="206" filterUnits="userSpaceOnUse" color-interpolation-filters="sRGB">
<feFlood flood-opacity="0" result="BackgroundImageFix"/>
<feGaussianBlur in="BackgroundImage" stdDeviation="20"/>
<feComposite in2="SourceAlpha" operator="in" result="effect1_backgroundBlur_4_23"/>
<feBlend mode="normal" in="SourceGraphic" in2="effect1_backgroundBlur_4_23" result="shape"/>
</filter>
<linearGradient id="paint0_linear_4_23" x1="-192" y1="176" x2="435.379" y2="707.039" gradientUnits="userSpaceOnUse">
<stop stop-color="white"/>
<stop offset="1" stop-color="white" stop-opacity="0"/>
</linearGradient>
<linearGradient id="paint1_linear_4_23" x1="-192" y1="176" x2="435.379" y2="707.039" gradientUnits="userSpaceOnUse">
<stop stop-color="white"/>
<stop offset="1" stop-color="white" stop-opacity="0"/>
</linearGradient>
<linearGradient id="paint2_linear_4_23" x1="772" y1="530" x2="694" y2="-2.69127e-05" gradientUnits="userSpaceOnUse">
<stop stop-color="white"/>
<stop offset="1" stop-color="white" stop-opacity="0"/>
</linearGradient>
<linearGradient id="paint3_linear_4_23" x1="917" y1="660" x2="839" y2="130" gradientUnits="userSpaceOnUse">
<stop stop-color="white"/>
<stop offset="1" stop-color="white" stop-opacity="0"/>
</linearGradient>
<linearGradient id="paint4_linear_4_23" x1="376.719" y1="300.625" x2="457.139" y2="450.367" gradientUnits="userSpaceOnUse">
<stop stop-color="white"/>
<stop offset="1" stop-color="white" stop-opacity="0"/>
</linearGradient>
<linearGradient id="paint5_linear_4_23" x1="216.636" y1="180.625" x2="300.571" y2="324.637" gradientUnits="userSpaceOnUse">
<stop stop-color="white"/>
<stop offset="1" stop-color="white" stop-opacity="0"/>
</linearGradient>
<linearGradient id="paint6_linear_4_23" x1="488.157" y1="80.7368" x2="630.258" y2="177.712" gradientUnits="userSpaceOnUse">
<stop stop-color="white"/>
<stop offset="1" stop-color="white" stop-opacity="0"/>
</linearGradient>
</defs>
</svg>
