<svg width="351" height="248" viewBox="0 0 351 248" fill="none" xmlns="http://www.w3.org/2000/svg">
<g filter="url(#filter0_b_4_130)">
<path d="M49 262C49 306.183 13.1828 342 -31 342C-75.1828 342 -111 306.183 -111 262C-111 217.817 -75.1828 182 -31 182C13.1828 182 49 217.817 49 262Z" fill="url(#paint0_linear_4_130)" fill-opacity="0.64"/>
<path d="M129 182C118.494 182 108.091 184.069 98.3854 188.09C88.6793 192.11 79.8602 198.003 72.4315 205.431C65.0028 212.86 59.11 221.679 55.0896 231.385C51.0693 241.091 49 251.494 49 262C49 272.506 51.0693 282.909 55.0897 292.615C59.11 302.321 65.0028 311.14 72.4315 318.569C79.8602 325.997 88.6793 331.89 98.3854 335.91C108.091 339.931 118.494 342 129 342V182Z" fill="url(#paint1_linear_4_130)" fill-opacity="0.64"/>
<path d="M128.5 182.502V341.498C118.23 341.434 108.068 339.38 98.5767 335.448C88.9313 331.453 80.1673 325.597 72.785 318.215C65.4028 310.833 59.5469 302.069 55.5516 292.423C51.5564 282.778 49.5 272.44 49.5 262C49.5 251.56 51.5563 241.222 55.5516 231.577C59.5468 221.931 65.4028 213.167 72.785 205.785C80.1673 198.403 88.9313 192.547 98.5767 188.552C108.068 184.62 118.23 182.566 128.5 182.502ZM48.5 262C48.5 305.907 12.9066 341.5 -31 341.5C-74.9066 341.5 -110.5 305.907 -110.5 262C-110.5 218.093 -74.9066 182.5 -31 182.5C12.9066 182.5 48.5 218.093 48.5 262Z" stroke="white" stroke-opacity="0.8"/>
</g>
<g filter="url(#filter1_b_4_130)">
<rect x="351" y="96" width="166" height="258" rx="24" transform="rotate(90 351 96)" fill="white" fill-opacity="0.52"/>
<rect x="350.5" y="96.5" width="165" height="257" rx="23.5" transform="rotate(90 350.5 96.5)" stroke="url(#paint2_linear_4_130)"/>
</g>
<g filter="url(#filter2_b_4_130)">
<rect x="282" width="166" height="258" rx="24" transform="rotate(90 282 0)" fill="white" fill-opacity="0.26"/>
<rect x="281.5" y="0.5" width="165" height="257" rx="23.5" transform="rotate(90 281.5 0.5)" stroke="url(#paint3_linear_4_130)"/>
</g>
<g filter="url(#filter3_b_4_130)">
<rect x="113" y="198" width="113.76" height="44" rx="22" fill="white" fill-opacity="0.24"/>
<circle cx="135" cy="220" r="12" fill="white"/>
<path d="M136.682 216.96L133.514 216.96L133.514 222.842L136.682 222.842L136.682 216.96Z" fill="#FF5F00"/>
<path d="M133.715 219.902C133.715 219.335 133.839 218.776 134.078 218.266C134.318 217.757 134.667 217.31 135.098 216.96C134.564 216.526 133.922 216.257 133.247 216.182C132.571 216.107 131.889 216.23 131.278 216.537C130.667 216.843 130.152 217.322 129.792 217.917C129.431 218.512 129.24 219.199 129.24 219.901C129.24 220.603 129.431 221.291 129.792 221.886C130.152 222.481 130.667 222.959 131.278 223.266C131.889 223.573 132.571 223.696 133.247 223.621C133.922 223.546 134.564 223.276 135.098 222.842C134.667 222.493 134.318 222.046 134.079 221.537C133.839 221.027 133.715 220.468 133.715 219.902Z" fill="#EB001B"/>
<path d="M140.958 219.902C140.958 220.604 140.767 221.291 140.407 221.886C140.046 222.481 139.531 222.96 138.92 223.266C138.309 223.573 137.627 223.696 136.951 223.621C136.275 223.546 135.634 223.276 135.1 222.842C135.531 222.492 135.879 222.046 136.119 221.536C136.359 221.027 136.483 220.468 136.483 219.901C136.483 219.335 136.359 218.776 136.119 218.266C135.879 217.757 135.531 217.31 135.1 216.96C135.634 216.526 136.275 216.256 136.951 216.181C137.627 216.106 138.309 216.229 138.92 216.536C139.531 216.843 140.046 217.321 140.407 217.916C140.767 218.511 140.958 219.199 140.958 219.901L140.958 219.902Z" fill="#F79E1B"/>
<path opacity="0.8" d="M162.37 224.5L164.394 218.043L164.394 224.5L165.758 224.5L165.758 216.525L163.591 216.525L161.666 222.883L159.73 216.525L157.563 216.525L157.563 224.5L158.927 224.5L158.927 218.043L160.951 224.5L162.37 224.5ZM170.957 222.168C170.957 223.18 170.385 223.664 169.417 223.664C168.757 223.664 168.328 223.356 168.328 222.839C168.328 222.168 169.087 221.893 170.957 221.717L170.957 222.168ZM169.131 224.643C170.011 224.643 170.693 224.346 171.078 223.697C171.111 224.104 171.144 224.247 171.188 224.5L172.387 224.5C172.266 224.005 172.211 223.224 172.211 222.476C172.211 221.937 172.233 221.233 172.233 220.947C172.266 219.055 171.155 218.406 169.736 218.406C168.306 218.406 167.305 219.242 167.217 220.441L168.504 220.441C168.537 219.726 169.032 219.374 169.692 219.374C170.352 219.374 170.924 219.682 170.924 220.694L170.924 220.804C168.768 221.035 166.942 221.387 166.942 222.872C166.942 223.95 167.844 224.643 169.131 224.643ZM178.166 220.199C177.924 219.011 176.868 218.45 175.713 218.45C174.437 218.45 173.304 219.121 173.304 220.166C173.304 221.255 174.085 221.684 175.086 221.893L175.977 222.069C176.56 222.19 177 222.399 177 222.883C177 223.367 176.505 223.653 175.812 223.653C175.031 223.653 174.602 223.312 174.481 222.696L173.205 222.696C173.348 223.807 174.316 224.643 175.768 224.643C177.11 224.643 178.276 223.961 178.276 222.729C178.276 221.574 177.363 221.2 176.164 220.969L175.328 220.804C174.811 220.705 174.536 220.496 174.536 220.1C174.536 219.704 175.064 219.451 175.636 219.451C176.296 219.451 176.791 219.66 176.934 220.199L178.166 220.199ZM179.609 218.582L178.729 218.582L178.729 219.528L179.609 219.528L179.609 222.949C179.609 224.159 179.862 224.5 181.127 224.5L182.095 224.5L182.095 223.499L181.622 223.499C181.061 223.499 180.918 223.356 180.918 222.751L180.918 219.528L182.106 219.528L182.106 218.582L180.918 218.582L180.918 217.02L179.609 217.02L179.609 218.582ZM188.506 221.915C188.627 219.935 187.483 218.45 185.668 218.45C183.985 218.45 182.764 219.715 182.764 221.497C182.764 223.202 183.853 224.643 185.756 224.643C187.274 224.643 188.176 223.675 188.44 222.729L187.153 222.729C186.922 223.29 186.394 223.554 185.701 223.554C184.953 223.554 184.183 223.015 184.095 221.915L188.506 221.915ZM185.668 219.473C186.438 219.473 187.142 220.034 187.175 220.958L184.095 220.958C184.216 219.847 185.052 219.473 185.668 219.473ZM192.818 218.593C192.719 218.582 192.576 218.571 192.477 218.571C191.762 218.582 191.19 218.978 190.871 219.638L190.871 218.582L189.584 218.582L189.584 224.5L190.893 224.5L190.893 221.398C190.893 220.21 191.366 219.88 192.191 219.88C192.389 219.88 192.598 219.891 192.818 219.913L192.818 218.593ZM196.013 218.45C194.242 218.45 193.109 219.792 193.109 221.552C193.109 223.312 194.242 224.643 195.958 224.643C197.223 224.643 198.444 223.862 198.708 222.476L197.432 222.476C197.256 223.268 196.629 223.554 195.98 223.554C195.21 223.554 194.462 222.949 194.462 221.541C194.462 220.144 195.188 219.539 196.013 219.539C196.728 219.539 197.267 219.979 197.388 220.606L198.664 220.606C198.433 219.297 197.311 218.45 196.013 218.45ZM203.334 222.168C203.334 223.18 202.762 223.664 201.794 223.664C201.134 223.664 200.705 223.356 200.705 222.839C200.705 222.168 201.464 221.893 203.334 221.717L203.334 222.168ZM201.508 224.643C202.388 224.643 203.07 224.346 203.455 223.697C203.488 224.104 203.521 224.247 203.565 224.5L204.764 224.5C204.643 224.005 204.588 223.224 204.588 222.476C204.588 221.937 204.61 221.233 204.61 220.947C204.643 219.055 203.532 218.406 202.113 218.406C200.683 218.406 199.682 219.242 199.594 220.441L200.881 220.441C200.914 219.726 201.409 219.374 202.069 219.374C202.729 219.374 203.301 219.682 203.301 220.694L203.301 220.804C201.145 221.035 199.319 221.387 199.319 222.872C199.319 223.95 200.221 224.643 201.508 224.643ZM209.168 218.593C209.069 218.582 208.926 218.571 208.827 218.571C208.112 218.582 207.54 218.978 207.221 219.638L207.221 218.582L205.934 218.582L205.934 224.5L207.243 224.5L207.243 221.398C207.243 220.21 207.716 219.88 208.541 219.88C208.739 219.88 208.948 219.891 209.168 219.913L209.168 218.593ZM213.792 219.374C213.44 218.791 212.824 218.45 212.032 218.45C210.624 218.45 209.458 219.649 209.458 221.541C209.458 223.444 210.624 224.643 212.032 224.643C212.824 224.643 213.44 224.302 213.792 223.719L213.792 224.5L215.101 224.5L215.101 216.525L213.792 216.525L213.792 219.374ZM213.847 221.541C213.847 222.905 213.165 223.576 212.318 223.576C211.438 223.576 210.822 222.806 210.822 221.541C210.822 220.309 211.438 219.517 212.318 219.517C213.165 219.517 213.847 220.177 213.847 221.541Z" fill="black"/>
<rect x="113.244" y="198.244" width="113.272" height="43.512" rx="21.756" stroke="url(#paint4_linear_4_130)" stroke-width="0.488"/>
</g>
<g filter="url(#filter4_b_4_130)">
<rect x="44" y="105" width="102.76" height="44" rx="22" fill="white" fill-opacity="0.24"/>
<circle cx="66" cy="127" r="12" fill="white"/>
<path d="M67.7117 123.489C67.4047 123.835 66.9136 124.108 66.4225 124.069C66.3611 123.601 66.6016 123.104 66.8829 122.797C67.1899 122.441 67.727 122.188 68.1619 122.168C68.213 122.656 68.0135 123.133 67.7117 123.489ZM68.1567 124.162C67.4457 124.123 66.8369 124.547 66.4993 124.547C66.1565 124.547 65.6398 124.182 65.0771 124.191C64.3456 124.201 63.6652 124.596 63.2917 125.225C62.5244 126.483 63.0922 128.345 63.834 129.369C64.1972 129.876 64.632 130.432 65.205 130.412C65.7473 130.393 65.9621 130.076 66.6169 130.076C67.2768 130.076 67.4661 130.412 68.0391 130.402C68.6325 130.393 69.0059 129.895 69.3692 129.388C69.7835 128.813 69.9523 128.252 69.9626 128.223C69.9523 128.213 68.8167 127.799 68.8064 126.551C68.7962 125.508 69.7017 125.01 69.7426 124.981C69.231 124.26 68.433 124.182 68.1567 124.162Z" fill="#243845"/>
<path opacity="0.8" d="M87.76 131.5L89.19 131.5L89.806 129.729L93.04 129.729L93.667 131.5L95.196 131.5L92.204 123.525L90.73 123.525L87.76 131.5ZM91.412 125.142L92.622 128.563L90.213 128.563L91.412 125.142ZM97.1846 128.541C97.1846 127.177 97.8556 126.517 98.7136 126.517C99.6376 126.517 100.177 127.298 100.177 128.541C100.177 129.806 99.6376 130.576 98.7136 130.576C97.8556 130.576 97.1846 129.905 97.1846 128.541ZM95.9306 125.582L95.9306 133.425L97.2396 133.425L97.2396 130.719C97.5916 131.302 98.2076 131.643 98.9996 131.643C100.452 131.643 101.541 130.444 101.541 128.541C101.541 126.649 100.452 125.45 98.9996 125.45C98.2076 125.45 97.5916 125.791 97.2396 126.374L97.2396 125.582L95.9306 125.582ZM103.866 128.541C103.866 127.177 104.537 126.517 105.395 126.517C106.319 126.517 106.858 127.298 106.858 128.541C106.858 129.806 106.319 130.576 105.395 130.576C104.537 130.576 103.866 129.905 103.866 128.541ZM102.612 125.582L102.612 133.425L103.921 133.425L103.921 130.719C104.273 131.302 104.889 131.643 105.681 131.643C107.133 131.643 108.222 130.444 108.222 128.541C108.222 126.649 107.133 125.45 105.681 125.45C104.889 125.45 104.273 125.791 103.921 126.374L103.921 125.582L102.612 125.582ZM110.603 123.525L109.294 123.525L109.294 131.5L110.603 131.5L110.603 123.525ZM117.422 128.915C117.543 126.935 116.399 125.45 114.584 125.45C112.901 125.45 111.68 126.715 111.68 128.497C111.68 130.202 112.769 131.643 114.672 131.643C116.19 131.643 117.092 130.675 117.356 129.729L116.069 129.729C115.838 130.29 115.31 130.554 114.617 130.554C113.869 130.554 113.099 130.015 113.011 128.915L117.422 128.915ZM114.584 126.473C115.354 126.473 116.058 127.034 116.091 127.958L113.011 127.958C113.132 126.847 113.968 126.473 114.584 126.473ZM118.566 123.525L118.566 131.5L119.963 131.5L119.963 128.486L121.217 128.486C123.098 128.486 124.583 128.046 124.583 126.033C124.583 123.8 122.944 123.525 121.195 123.525L118.566 123.525ZM121.195 124.647C122.174 124.647 123.131 124.757 123.131 126.044C123.131 127.188 122.317 127.342 121.261 127.342L119.963 127.342L119.963 124.647L121.195 124.647ZM128.909 129.168C128.909 130.18 128.337 130.664 127.369 130.664C126.709 130.664 126.28 130.356 126.28 129.839C126.28 129.168 127.039 128.893 128.909 128.717L128.909 129.168ZM127.083 131.643C127.963 131.643 128.645 131.346 129.03 130.697C129.063 131.104 129.096 131.247 129.14 131.5L130.339 131.5C130.218 131.005 130.163 130.224 130.163 129.476C130.163 128.937 130.185 128.233 130.185 127.947C130.218 126.055 129.107 125.406 127.688 125.406C126.258 125.406 125.257 126.242 125.169 127.441L126.456 127.441C126.489 126.726 126.984 126.374 127.644 126.374C128.304 126.374 128.876 126.682 128.876 127.694L128.876 127.804C126.72 128.035 124.894 128.387 124.894 129.872C124.894 130.95 125.796 131.643 127.083 131.643ZM131.764 133.425C133.095 133.425 133.48 133.018 134.041 131.489L136.12 125.582L134.778 125.582L133.436 129.828L132.094 125.582L130.664 125.582L132.809 131.467L132.743 131.61C132.479 132.38 132.237 132.424 131.665 132.424L131.17 132.424L131.17 133.425L131.764 133.425Z" fill="black"/>
<rect x="44.244" y="105.244" width="102.272" height="43.512" rx="21.756" stroke="url(#paint5_linear_4_130)" stroke-width="0.488"/>
</g>
<g filter="url(#filter5_b_4_130)">
<path d="M252 96C252 112.569 238.569 126 222 126C205.431 126 192 112.569 192 96C192 79.4315 205.431 66 222 66C238.569 66 252 79.4315 252 96Z" fill="white" fill-opacity="0.4"/>
<path d="M282 66C278.06 66 274.159 66.776 270.52 68.2836C266.88 69.7913 263.573 72.001 260.787 74.7868C258.001 77.5726 255.791 80.8797 254.284 84.5195C252.776 88.1593 252 92.0603 252 96C252 99.9397 252.776 103.841 254.284 107.481C255.791 111.12 258.001 114.427 260.787 117.213C263.573 119.999 266.88 122.209 270.52 123.716C274.159 125.224 278.06 126 282 126V66Z" fill="white" fill-opacity="0.4"/>
<path d="M281.756 66.245V125.755C277.931 125.724 274.148 124.955 270.613 123.491C267.003 121.996 263.722 119.804 260.959 117.041C258.196 114.278 256.004 110.997 254.509 107.387C253.014 103.777 252.244 99.9076 252.244 96C252.244 92.0924 253.014 88.223 254.509 84.6129C256.004 81.0027 258.196 77.7224 260.959 74.9593C263.722 72.1962 267.003 70.0044 270.613 68.509C274.148 67.0448 277.931 66.2764 281.756 66.245ZM251.756 96C251.756 112.434 238.434 125.756 222 125.756C205.566 125.756 192.244 112.434 192.244 96C192.244 79.5662 205.566 66.244 222 66.244C238.434 66.244 251.756 79.5662 251.756 96Z" stroke="url(#paint6_linear_4_130)" stroke-width="0.488"/>
</g>
<defs>
<filter id="filter0_b_4_130" x="-130.52" y="162.48" width="279.04" height="199.04" filterUnits="userSpaceOnUse" color-interpolation-filters="sRGB">
<feFlood flood-opacity="0" result="BackgroundImageFix"/>
<feGaussianBlur in="BackgroundImage" stdDeviation="9.76"/>
<feComposite in2="SourceAlpha" operator="in" result="effect1_backgroundBlur_4_130"/>
<feBlend mode="normal" in="SourceGraphic" in2="effect1_backgroundBlur_4_130" result="shape"/>
</filter>
<filter id="filter1_b_4_130" x="51.2532" y="54.2532" width="341.494" height="249.494" filterUnits="userSpaceOnUse" color-interpolation-filters="sRGB">
<feFlood flood-opacity="0" result="BackgroundImageFix"/>
<feGaussianBlur in="BackgroundImage" stdDeviation="20.8734"/>
<feComposite in2="SourceAlpha" operator="in" result="effect1_backgroundBlur_4_130"/>
<feBlend mode="normal" in="SourceGraphic" in2="effect1_backgroundBlur_4_130" result="shape"/>
</filter>
<filter id="filter2_b_4_130" x="-17.7468" y="-41.7468" width="341.494" height="249.494" filterUnits="userSpaceOnUse" color-interpolation-filters="sRGB">
<feFlood flood-opacity="0" result="BackgroundImageFix"/>
<feGaussianBlur in="BackgroundImage" stdDeviation="20.8734"/>
<feComposite in2="SourceAlpha" operator="in" result="effect1_backgroundBlur_4_130"/>
<feBlend mode="normal" in="SourceGraphic" in2="effect1_backgroundBlur_4_130" result="shape"/>
</filter>
<filter id="filter3_b_4_130" x="93.48" y="178.48" width="152.8" height="83.04" filterUnits="userSpaceOnUse" color-interpolation-filters="sRGB">
<feFlood flood-opacity="0" result="BackgroundImageFix"/>
<feGaussianBlur in="BackgroundImage" stdDeviation="9.76"/>
<feComposite in2="SourceAlpha" operator="in" result="effect1_backgroundBlur_4_130"/>
<feBlend mode="normal" in="SourceGraphic" in2="effect1_backgroundBlur_4_130" result="shape"/>
</filter>
<filter id="filter4_b_4_130" x="24.48" y="85.48" width="141.8" height="83.04" filterUnits="userSpaceOnUse" color-interpolation-filters="sRGB">
<feFlood flood-opacity="0" result="BackgroundImageFix"/>
<feGaussianBlur in="BackgroundImage" stdDeviation="9.76"/>
<feComposite in2="SourceAlpha" operator="in" result="effect1_backgroundBlur_4_130"/>
<feBlend mode="normal" in="SourceGraphic" in2="effect1_backgroundBlur_4_130" result="shape"/>
</filter>
<filter id="filter5_b_4_130" x="172.48" y="46.48" width="129.04" height="99.04" filterUnits="userSpaceOnUse" color-interpolation-filters="sRGB">
<feFlood flood-opacity="0" result="BackgroundImageFix"/>
<feGaussianBlur in="BackgroundImage" stdDeviation="9.76"/>
<feComposite in2="SourceAlpha" operator="in" result="effect1_backgroundBlur_4_130"/>
<feBlend mode="normal" in="SourceGraphic" in2="effect1_backgroundBlur_4_130" result="shape"/>
</filter>
<linearGradient id="paint0_linear_4_130" x1="-196.492" y1="142.444" x2="82.4284" y2="378.972" gradientUnits="userSpaceOnUse">
<stop stop-color="white"/>
<stop offset="1" stop-color="white" stop-opacity="0"/>
</linearGradient>
<linearGradient id="paint1_linear_4_130" x1="-196.492" y1="142.444" x2="82.4284" y2="378.972" gradientUnits="userSpaceOnUse">
<stop stop-color="white"/>
<stop offset="1" stop-color="white" stop-opacity="0"/>
</linearGradient>
<linearGradient id="paint2_linear_4_130" x1="407.147" y1="354" x2="369.285" y2="95.9677" gradientUnits="userSpaceOnUse">
<stop stop-color="white"/>
<stop offset="1" stop-color="white" stop-opacity="0"/>
</linearGradient>
<linearGradient id="paint3_linear_4_130" x1="338.147" y1="258" x2="300.285" y2="-0.0322967" gradientUnits="userSpaceOnUse">
<stop stop-color="white"/>
<stop offset="1" stop-color="white" stop-opacity="0"/>
</linearGradient>
<linearGradient id="paint4_linear_4_130" x1="151.547" y1="178.75" x2="186.361" y2="257.725" gradientUnits="userSpaceOnUse">
<stop stop-color="white"/>
<stop offset="1" stop-color="white" stop-opacity="0"/>
</linearGradient>
<linearGradient id="paint5_linear_4_130" x1="78.8193" y1="85.75" x2="115.997" y2="161.929" gradientUnits="userSpaceOnUse">
<stop stop-color="white"/>
<stop offset="1" stop-color="white" stop-opacity="0"/>
</linearGradient>
<linearGradient id="paint6_linear_4_130" x1="201.598" y1="72.5414" x2="269.266" y2="118.72" gradientUnits="userSpaceOnUse">
<stop stop-color="white"/>
<stop offset="1" stop-color="white" stop-opacity="0"/>
</linearGradient>
</defs>
</svg>
