<svg width="174" height="34" viewBox="0 0 174 34" fill="none" xmlns="http://www.w3.org/2000/svg">
<path d="M34 17C34 26.3888 26.3888 34 17 34C7.61116 34 0 26.3888 0 17C0 7.61116 7.61116 0 17 0C26.3888 0 34 7.61116 34 17Z" fill="#CA092C"/>
<path d="M51 0C48.7675 -2.6622e-08 46.5569 0.439718 44.4944 1.29405C42.4319 2.14838 40.5578 3.40059 38.9792 4.97918C37.4006 6.55778 36.1484 8.43185 35.294 10.4944C34.4397 12.5569 34 14.7675 34 17C34 19.2325 34.4397 21.4431 35.2941 23.5056C36.1484 25.5682 37.4006 27.4422 38.9792 29.0208C40.5578 30.5994 42.4319 31.8516 44.4944 32.706C46.5569 33.5603 48.7675 34 51 34V0Z" fill="#CA092C"/>
<path d="M71.448 8.288L76.376 28H80.632L83.6 13.916C83.684 13.552 83.74 12.908 83.768 12.208C83.768 12.04 83.824 11.928 83.992 11.928C84.16 11.928 84.216 12.04 84.216 12.208C84.244 12.908 84.3 13.552 84.384 13.916L87.352 28H91.608L96.536 8.288H93.4L89.844 23.8C89.676 24.556 89.62 25.48 89.592 26.152C89.592 26.32 89.536 26.432 89.368 26.432C89.2 26.432 89.144 26.32 89.144 26.152C89.144 25.48 89.116 24.556 88.948 23.8L85.56 8.288H82.424L79.036 23.8C78.868 24.556 78.84 25.48 78.84 26.152C78.84 26.32 78.784 26.432 78.616 26.432C78.448 26.432 78.392 26.32 78.392 26.152C78.364 25.48 78.308 24.556 78.14 23.8L74.584 8.288H71.448ZM96.0679 23.996C96.0679 26.432 98.2799 28.224 100.996 28.224C103.6 28.224 105.504 26.796 106.316 24.668C106.372 24.528 106.428 24.304 106.652 24.388C106.848 24.472 106.736 24.696 106.68 24.948C106.428 25.676 106.372 26.096 106.372 26.628V28H109.06V19.824C109.06 14.56 106.064 13.44 102.844 13.44C99.5399 13.44 97.0199 14.868 96.5159 18.144H99.1479C99.3439 16.744 100.212 15.792 102.732 15.792C105.672 15.792 106.344 16.968 106.372 18.144C106.4 19.628 103.796 19.32 101.22 19.516C98.4759 19.712 96.0679 20.72 96.0679 23.996ZM106.372 20.272C106.344 23.884 104.216 25.48 102.032 25.76C99.7079 26.068 98.7559 25.004 98.7559 23.856C98.7559 22.54 99.6519 21.924 101.388 21.672C103.572 21.364 105.504 21.336 106.372 20.272ZM112.413 7.84V28H115.101V7.84H112.413ZM118.456 7.84V28H121.144V7.84H118.456ZM136.824 20.636C136.824 15.54 133.492 13.44 130.3 13.44C126.184 13.44 123.384 16.52 123.384 20.832C123.384 24.892 125.848 28.224 130.356 28.224C134.024 28.224 135.984 25.816 136.572 23.156H133.8C133.296 24.808 132.344 25.76 130.412 25.76C127.808 25.76 126.24 23.912 126.044 21.616H136.74C136.796 21.308 136.824 21.028 136.824 20.636ZM126.184 19.376C126.576 17.444 127.752 15.792 130.44 15.792C132.624 15.792 133.968 17.276 134.136 19.376H126.184ZM146.672 16.016V13.664H142.64V9.632H139.952V13.664H137.264V16.016H139.952V23.8C139.952 26.908 141.352 28 144.32 28H146.672V25.648H144.544C142.976 25.648 142.64 25.144 142.64 23.52V16.016H146.672ZM157.2 16.016V13.664H153.168V9.632H150.48V13.664H147.792V16.016H150.48V23.8C150.48 26.908 151.88 28 154.848 28H157.2V25.648H155.072C153.504 25.648 153.168 25.144 153.168 23.52V16.016H157.2ZM165.492 13.44C161.152 13.44 158.548 16.772 158.548 20.832C158.548 24.892 161.152 28.224 165.492 28.224C169.832 28.224 172.436 24.892 172.436 20.832C172.436 16.772 169.832 13.44 165.492 13.44ZM165.492 25.76C162.804 25.76 161.236 23.548 161.236 20.832C161.236 18.116 162.804 15.904 165.492 15.904C168.18 15.904 169.748 18.116 169.748 20.832C169.748 23.548 168.18 25.76 165.492 25.76Z" fill="black"/>
</svg>
