<svg width="38" height="24" viewBox="0 0 38 24" fill="none" xmlns="http://www.w3.org/2000/svg">
<path d="M24.2847 2.56583H14.1227V21.4336H24.2847V2.56583Z" fill="#FF5F00"/>
<path d="M14.7674 12.0016C14.7655 10.1842 15.164 8.39021 15.9325 6.75547C16.701 5.12072 17.8195 3.68806 19.2032 2.56599C17.4899 1.17489 15.4323 0.309849 13.2657 0.0697306C11.099 -0.170388 8.91072 0.224105 6.95081 1.20812C4.99091 2.19214 3.3385 3.72598 2.18245 5.63434C1.02639 7.5427 0.41333 9.74859 0.41333 11.9999C0.41333 14.2512 1.02639 16.4571 2.18245 18.3654C3.3385 20.2738 4.99091 21.8076 6.95081 22.7917C8.91072 23.7757 11.099 24.1702 13.2657 23.9301C15.4323 23.6899 17.4899 22.8249 19.2032 21.4338C17.8199 20.3121 16.7017 18.88 15.9332 17.2458C15.1647 15.6117 14.766 13.8184 14.7674 12.0016Z" fill="#EB001B"/>
<path d="M38.0002 12.0017C38.0001 14.2531 37.3869 16.4592 36.2307 18.3676C35.0744 20.276 33.4218 21.8098 31.4616 22.7937C29.5015 23.7776 27.3129 24.1718 25.1461 23.9314C22.9794 23.6909 20.9218 22.8254 19.2086 21.4339C20.5914 20.3112 21.7093 18.8787 22.478 17.2444C23.2467 15.6102 23.6461 13.817 23.6461 12C23.6461 10.183 23.2467 8.38978 22.478 6.75555C21.7093 5.12133 20.5914 3.68882 19.2086 2.5661C20.9218 1.17456 22.9794 0.309099 25.1461 0.0686359C27.3129 -0.171827 29.5015 0.222411 31.4616 1.20629C33.4218 2.19017 35.0744 3.72398 36.2307 5.63241C37.3869 7.54083 38.0001 9.74686 38.0002 11.9983V12.0017Z" fill="#F79E1B"/>
</svg>
