<svg width="63" height="22" viewBox="0 0 63 22" fill="none" xmlns="http://www.w3.org/2000/svg">
<path d="M27.4416 20.9888H22.4423L25.5692 1.07507H30.5682L27.4416 20.9888Z" fill="#1434CB"/>
<path d="M45.5649 1.5621C44.5789 1.15917 43.0149 0.714294 41.081 0.714294C36.144 0.714294 32.6674 3.4258 32.6461 7.30245C32.6051 10.1626 35.1352 11.7512 37.0276 12.7049C38.9617 13.6794 39.6192 14.3155 39.6192 15.1841C39.5995 16.5182 38.0563 17.1331 36.6169 17.1331C34.621 17.1331 33.5515 16.8161 31.9263 16.0739L31.268 15.7557L30.5684 20.2259C31.7409 20.7761 33.9012 21.2643 36.144 21.2857C41.3896 21.2857 44.8047 18.6162 44.8451 14.485C44.8651 12.2181 43.5291 10.4811 40.6487 9.06169C38.9002 8.15053 37.8294 7.53615 37.8294 6.60387C37.8499 5.75635 38.7351 4.88827 40.7089 4.88827C42.3341 4.84576 43.5283 5.24812 44.4329 5.65076L44.885 5.86222L45.5649 1.5621Z" fill="#1434CB"/>
<path d="M52.2082 13.9341C52.6199 12.79 54.2042 8.36236 54.2042 8.36236C54.1834 8.40488 54.6151 7.19723 54.8619 6.45586L55.2113 8.17174C55.2113 8.17174 56.158 12.9384 56.3636 13.9341C55.5823 13.9341 53.1957 13.9341 52.2082 13.9341ZM58.3792 1.07507H54.5123C53.3198 1.07507 52.4138 1.43492 51.8993 2.72732L44.4735 20.9885H49.7191C49.7191 20.9885 50.5827 18.5307 50.7684 18.0013C51.3438 18.0013 56.4467 18.0013 57.187 18.0013C57.3306 18.7005 57.7835 20.9885 57.7835 20.9885H62.4124L58.3792 1.07507Z" fill="#1434CB"/>
<path d="M18.2663 1.07507L13.3703 14.6543L12.8353 11.9003C11.9302 8.72249 9.09138 5.26989 5.92346 3.55316L10.408 20.9676H15.6946L23.5526 1.07507H18.2663Z" fill="#1434CB"/>
<path d="M8.82463 1.07507H0.781261L0.698975 1.47744C6.97331 3.12996 11.1287 7.11332 12.8359 11.9011L11.0874 2.749C10.7995 1.47715 9.91487 1.11703 8.82463 1.07507Z" fill="#1434CB"/>
</svg>
